<svg xmlns="http://www.w3.org/2000/svg" xmlns:xlink="http://www.w3.org/1999/xlink" xmlns:inkscape="http://www.inkscape.org/namespaces/inkscape" version="1.1" width="519" height="546" viewBox="0 0 519 546">
<g>
<path d="M494.492 209.539C494.492 300.789 390.246 374.766 261.656 374.766 133.062 374.766 28.82 300.789 28.82 209.539 28.82 118.285 133.062 44.312 261.656 44.312 390.246 44.312 494.492 118.285 494.492 209.539ZM494.492 209.539" fill="#99ccff"/>
<path transform="matrix(1,.700157,-.700208,.999928,0,0)" d="M420.565-102.84C420.565-82.55 370.983-66.099 309.819-66.099 248.655-66.098 199.074-82.549 199.073-102.839 199.074-123.134 248.656-139.585 309.82-139.585 370.981-139.583 420.565-123.135 420.565-102.84ZM420.565-102.84" fill="#ffffff"/>
<path transform="matrix(1,.700157,-.700208,.999928,0,0)" stroke-width=".615253" stroke-linecap="butt" stroke-miterlimit="4" stroke-linejoin="miter" fill="none" stroke="#000000" d="M420.565-102.84C420.565-82.55 370.983-66.099 309.819-66.099 248.655-66.098 199.074-82.549 199.073-102.839 199.074-123.134 248.656-139.585 309.82-139.585 370.981-139.583 420.565-123.135 420.565-102.84ZM420.565-102.84"/>
<text xml:space="preserve" transform="matrix(.8191814 .5735559 -.57359698 .8191227 0 0)" font-size="22.531756" font-family="NimbusRoman"><tspan y="-118.80577" x="329.14253">J</tspan><tspan y="-118.80578" x="336.60054">A</tspan><tspan y="-118.80577" x="352.68818">S</tspan><tspan y="-118.80576" x="365.21586 380.83036">NA</tspan><tspan y="-118.80577" x="395.63374 411.90165">OE</tspan></text>
<path transform="matrix(.57735,-.999928,1,.577309,0,0)" d="M49.298 166.272C49.3 188.927-7.831 207.295-78.308 207.297-148.783 207.294-205.914 188.927-205.915 166.272-205.913 143.615-148.782 125.247-78.309 125.247-7.832 125.245 49.3 143.615 49.298 166.272ZM49.298 166.272" fill="#ffffff"/>
<path transform="matrix(.57735,-.999928,1,.577309,0,0)" stroke-width=".650459" stroke-linecap="butt" stroke-miterlimit="4" stroke-linejoin="miter" fill="none" stroke="#000000" d="M49.298 166.272C49.3 188.927-7.831 207.295-78.308 207.297-148.783 207.294-205.914 188.927-205.915 166.272-205.913 143.615-148.782 125.247-78.309 125.247-7.832 125.245 49.3 143.615 49.298 166.272ZM49.298 166.272"/>
<text xml:space="preserve" transform="matrix(.5000179 -.86599448 .8660564 .49998216 0 0)" font-size="22.531756" font-family="NimbusRoman"><tspan y="198.18029" x="-115.44928 -106.684429 -99.18135 -79.15063">JIME</tspan></text>
<path transform="matrix(1,-.26793,.267949,.999928,0,0)" d="M347.85 393.911C347.85 418.913 283.669 439.183 204.5 439.186 125.329 439.185 61.151 418.914 61.151 393.912 61.148 368.906 125.329 348.636 204.501 348.637 283.669 348.638 347.851 368.906 347.85 393.911ZM347.85 393.911" fill="#ffffff"/>
<path transform="matrix(1,-.26793,.267949,.999928,0,0)" stroke-width=".725493" stroke-linecap="butt" stroke-miterlimit="4" stroke-linejoin="miter" fill="none" stroke="#000000" d="M347.85 393.911C347.85 418.913 283.669 439.183 204.5 439.186 125.329 439.185 61.151 418.914 61.151 393.912 61.148 368.906 125.329 348.636 204.501 348.637 283.669 348.638 347.851 368.906 347.85 393.911ZM347.85 393.911"/>
<text xml:space="preserve" transform="matrix(.96596047 -.2588098 .25882829 .96589127 0 0)" font-size="22.531756" font-family="NimbusRoman"><tspan y="414.46678" x="195.32224">J</tspan><tspan y="414.46675" x="204.08707">I</tspan><tspan y="414.46678" x="211.59014">N</tspan></text>
<path transform="matrix(1,0,0,.999928,0,0)" d="M221.848 160.734C175.582 160.734 164.016 209.554 201.027 219.316 164.016 240.798 205.656 287.665 235.727 268.136 256.547 307.194 325.957 307.194 349.09 268.136 395.355 268.136 395.355 229.083 366.441 209.554 395.355 170.497 349.09 131.439 308.605 150.968 279.684 121.677 233.414 121.677 221.848 160.734ZM221.848 160.734" fill="#cdeb8b"/>
<path transform="matrix(1,0,0,.999928,0,0)" stroke-width=".751085" stroke-linecap="butt" stroke-miterlimit="10" stroke-linejoin="miter" fill="none" stroke="#36393d" d="M221.848 160.734C175.582 160.734 164.016 209.554 201.027 219.316 164.016 240.798 205.656 287.665 235.727 268.136 256.547 307.194 325.957 307.194 349.09 268.136 395.355 268.136 395.355 229.083 366.441 209.554 395.355 170.497 349.09 131.439 308.605 150.968 279.684 121.677 233.414 121.677 221.848 160.734ZM221.848 160.734"/>
<text xml:space="preserve" transform="matrix(1.0000358 0 0 .9999642 0 0)" font-size="15.021171" font-family="NimbusRoman"><tspan y="213.67617" x="223.54529 231.89705 236.85405 243.52344 249.98255 254.24857 258.42448 264.95869 271.62809 275.80397 279.55928 290.25434 296.78858 301.11466 307.78407 315.29466 321.96406 327.80729">Practical Database</tspan><tspan y="232.45264" x="216.1173 220.2932 227.80377 231.55907 244.91289 251.58228 256.86973 261.04563 265.3116 269.4875 281.17396 287.84336 291.59867 296.6007 304.1113 311.6219 319.1325 324.78047 329.12159 334.40904">in Maritime Industry</tspan></text>
<path d="M301.969 142.707 312.609 130.027 307.074 125.383 328.914 116.297 323.758 139.383 318.223 134.738 307.582 147.418ZM301.969 142.707" fill="#00cc00"/>
<path d="M348.5 132.422 339.008 145.98 344.926 150.125 323.957 161.082 327.082 137.633 333 141.777 342.496 128.219ZM348.5 132.422" fill="#ffcc99"/>
<path d="M368.93 144.617 359.438 158.18 365.348 162.316 344.387 173.277 347.512 149.828 353.43 153.973 362.926 140.414ZM368.93 144.617" fill="#ffcc99"/>
<path d="M364.375 177.418 372.648 163.09 366.398 159.48 386.328 146.73 385.258 170.367 379 166.754 370.727 181.082ZM364.375 177.418" fill="#00cc00"/>
<path d="M228.57 143.242 214.242 134.969 210.629 141.227 197.879 121.293 221.52 122.363 217.906 128.621 232.234 136.895ZM228.57 143.242" fill="#00cc00"/>
<path d="M190.082 145.848 204.699 153.617 208.086 147.246 221.52 166.711 197.867 166.469 201.258 160.09 186.641 152.316ZM190.082 145.848" fill="#ffcc99"/>
<path d="M175.062 171.199 189.676 178.973 193.066 172.598 206.5 192.066 182.844 191.824 186.234 185.445 171.621 177.672ZM175.062 171.199" fill="#ffcc99"/>
<path d="M189.328 222.102 174.992 213.824 171.383 220.074 158.637 200.148 182.27 201.219 178.656 207.477 192.992 215.75ZM189.328 222.102" fill="#00cc00"/>
<path d="M272.723 284.332 277.008 300.32 283.977 298.453 278.902 321.555 262.945 304.09 269.926 302.219 265.641 286.23ZM272.723 284.332" fill="#00cc00"/>
<path d="M297.895 314.992 293.609 299.004 286.637 300.871 291.715 277.77 307.668 295.234 300.688 297.105 304.973 313.094ZM297.895 314.992" fill="#ffcc99"/>
<path d="M320.426 307.48 316.141 291.492 309.168 293.359 314.246 270.262 330.203 287.727 323.223 289.594 327.508 305.582ZM320.426 307.48" fill="#ffcc99"/>
<path d="M339.566 261.801 343.852 277.781 350.824 275.914 345.746 299.023 329.789 281.551 336.77 279.68 332.488 263.699ZM339.566 261.801" fill="#00cc00"/>
<path d="M261.184 6.758V23.312H268.406L257.516 44.312 246.633 23.312H253.852V6.758ZM261.184 6.758" fill="#647687"/>
<path d="M333.516 8.348 329.23 24.336 336.211 26.207 320.254 43.672 315.18 20.57 322.148 22.438 326.434 6.449ZM333.516 8.348" fill="#647687"/>
<path d="M403.016 41.148 394.738 55.484 400.996 59.098 381.062 71.836 382.137 48.211 388.391 51.82 396.668 37.484ZM403.016 41.148" fill="#647687"/>
<path d="M446.137 75.008 434.43 86.711 439.535 91.816 416.988 98.969 424.137 76.422 429.246 81.527 440.953 69.824ZM446.137 75.008" fill="#647687"/>
<path d="M487.434 107.875 473.098 116.152 476.707 122.41 453.078 123.477 465.82 103.555 469.43 109.805 483.766 101.527ZM487.434 107.875" fill="#647687"/>
<path d="M510.199 151.891 494.207 156.176 496.078 163.148 472.977 158.07 490.441 142.117 492.312 149.094 508.301 144.812ZM510.199 151.891" fill="#647687"/>
<path d="M517.461 223.391 500.91 223.68 501.035 230.895 479.848 220.379 500.656 209.125 500.781 216.348 517.332 216.059ZM517.461 223.391" fill="#647687"/>
<path d="M508.301 284.781 492.312 280.496 490.441 287.465 472.977 271.52 496.078 266.438 494.207 273.414 510.199 277.699ZM508.301 284.781" fill="#647687"/>
<path d="M475.777 329.695 460.777 322.699 457.727 329.238 443.293 310.504 466.926 309.508 463.875 316.055 478.879 323.051ZM475.777 329.695" fill="#647687"/>
<path d="M440.953 364.348 429.246 352.641 424.145 357.746 416.988 335.203 439.539 342.352 434.43 347.461 446.137 359.164ZM440.953 364.348" fill="#647687"/>
<path d="M383.148 396.613 374.871 382.277 368.617 385.887 367.543 362.258 387.477 375 381.219 378.613 389.496 392.949ZM383.148 396.613" fill="#647687"/>
<path d="M326.434 412.977 322.148 396.988 315.18 398.859 320.254 375.758 336.211 393.223 329.23 395.094 333.516 411.082ZM326.434 412.977" fill="#647687"/>
<path d="M261.363 427.336V410.785H254.145L265.027 389.785 275.918 410.785H268.691V427.336ZM261.363 427.336" fill="#647687"/>
<path d="M183.969 418.312 188.25 402.332 181.277 400.465 197.227 382.988 202.309 406.098 195.332 404.23 191.047 420.211ZM183.969 418.312" fill="#647687"/>
<path d="M101.746 385.438 110.02 371.109 103.766 367.5 123.695 354.75 122.625 378.387 116.367 374.773 108.094 389.102ZM101.746 385.438" fill="#647687"/>
<path d="M51.66 347.184 65.988 338.91 62.379 332.66 86.016 331.582 73.266 351.516 69.652 345.258 55.324 353.531ZM51.66 347.184" fill="#647687"/>
<path d="M7.293 274.77 23.273 270.488 21.406 263.516 44.516 268.59 27.043 284.547 25.172 277.566 9.188 281.852ZM7.293 274.77" fill="#647687"/>
<path d="M.027 213.785 16.574 213.496 16.445 206.281 37.641 216.797 16.828 228.051 16.699 220.828 .156 221.117ZM.027 213.785" fill="#647687"/>
<path d="M17.148 165.406 34.742 170.121 36.609 163.148 56.102 179.637 30.973 184.18 32.844 177.199 15.25 172.488ZM17.148 165.406" fill="#647687"/>
<path d="M35.586 108.785 53.617 117.191 56.672 110.645 74.945 131.184 47.469 130.379 50.52 123.836 32.488 115.43ZM35.586 108.785" fill="#647687"/>
<path d="M81.848 69.824 93.547 81.523 98.652 76.422 105.812 98.969 83.254 91.816 88.363 86.707 76.664 75.008ZM81.848 69.824" fill="#647687"/>
<path d="M134.328 30.047 142.602 44.375 148.852 40.77 149.934 64.402 129.996 51.656 136.254 48.043 127.98 33.715ZM134.328 30.047" fill="#647687"/>
<path d="M212.824 13.961 217.105 29.941 224.078 28.074 219 51.18 203.047 33.711 210.023 31.84 205.742 15.859ZM212.824 13.961" fill="#647687"/>
<path d="M85.52 495.02H102.074V487.801L123.074 498.684 102.074 509.574V502.352H85.52ZM85.52 495.02" fill="#ffcc99"/>
<path d="M85.52 464.98H102.074V457.762L123.074 468.645 102.074 479.535V472.309H85.52ZM85.52 464.98" fill="#647687"/>
<path d="M85.52 526.562H102.074V519.348L123.074 530.227 102.074 541.117V533.895H85.52ZM85.52 526.562" fill="#00cc00"/>
<text xml:space="preserve" transform="matrix(1.0000359 0 0 .99996426 0 0)" font-size="13.5190529" font-family="NimbusRoman"><tspan y="472.04026" x="137.81923 147.3772 153.37966 159.38211 166.14163 171.40055 174.7803 185.29813 188.67789 194.46405 201.22357 207.22603 210.98433 214.74263 220.74509 227.15312 233.50708 239.4149 244.67382 248.05358 254.05603 258.4497 265.20924 271.96876 278.72828 285.4878 288.86756 299.38539 305.38786 310.14656 313.90486 317.74424 321.50254 332.02037 338.02284 341.4026 345.16087 351.92039 358.6799 365.43943 370.52259 374.4296 379.1883">Needs &#x0026; challenges around maritime industry</tspan><tspan y="502.08259" x="137.81923 147.57999 154.33951 158.09781 164.00563 170.76515 181.28299 187.19081 192.4497 195.82947 202.589 207.09084 210.4706 216.40546 222.40792 228.19406 234.95359 238.33336 243.59226 250.35178 256.35426 260.11253 265.99333 269.8868 276.40299 278.8364 284.0953 287.47508 293.47755 299.29075 303.13017 306.48289 313.2424 317.00068 320.82658 324.58485 330.49269">Outcomes of each society's activities</tspan><tspan y="533.6271" x="137.81923 147.57999 154.33951 160.62586 169.92696 173.68527 179.68772 186.28502 192.63898 198.5468 203.80571 207.18547 213.94499 218.44683 221.82659 227.76145 233.7639 239.55007 246.30959 249.68935 254.94824 261.70777 267.71025 271.46855 277.34934 281.2428 287.759 290.1924 295.45133 298.8311 305.5906 312.35014 316.1084 322.01625 328.77577 339.29359">Knowledges of each society's outcome</tspan></text>
</g>
</svg>
