<svg width="2351" height="2470" xmlns="http://www.w3.org/2000/svg" xmlns:xlink="http://www.w3.org/1999/xlink" xml:space="preserve" overflow="hidden"><g transform="translate(-1022 -27)"><g><path d="M3265 950C3265 1363.66 2792.44 1699 2209.5 1699 1626.56 1699 1154 1363.66 1154 950 1154 536.339 1626.56 201 2209.5 201 2792.44 201 3265 536.339 3265 950Z" fill="#99CCFF" fill-rule="evenodd" fill-opacity="1"/><path d="M3256.42 868.638C3192.02 960.617 2915.07 877.82 2637.85 683.706 2360.62 489.592 2188.1 257.667 2252.5 165.689 2316.91 73.7096 2593.85 156.506 2871.08 350.621 3148.3 544.735 3320.83 776.659 3256.42 868.638Z" stroke="#000000" stroke-width="3.40285" stroke-linecap="butt" stroke-linejoin="miter" stroke-miterlimit="8" stroke-opacity="1" fill="#FFFFFF" fill-rule="evenodd" fill-opacity="1"/><text fill="#000000" fill-opacity="1" font-family="TeXGyreTermes,TeXGyreTermes_MSFontService,sans-serif" font-style="normal" font-variant="normal" font-weight="400" font-stretch="normal" font-size="103" text-anchor="start" direction="ltr" writing-mode="lr-tb" unicode-bidi="normal" text-decoration="none" transform="matrix(0.819152 0.573576 -0.573576 0.819152 2622.77 320)">JASNAOE</text><path d="M1906.44 211.676C2009.14 270.968 1942.89 577.985 1758.46 897.418 1574.04 1216.85 1341.28 1427.73 1238.58 1368.44 1135.89 1309.15 1202.14 1002.13 1386.56 682.702 1570.99 363.27 1803.75 152.384 1906.44 211.676Z" stroke="#000000" stroke-width="3.40285" stroke-linecap="butt" stroke-linejoin="miter" stroke-miterlimit="8" stroke-opacity="1" fill="#FFFFFF" fill-rule="evenodd" fill-opacity="1"/><text fill="#000000" fill-opacity="1" font-family="TeXGyreTermes,TeXGyreTermes_MSFontService,sans-serif" font-style="normal" font-variant="normal" font-weight="400" font-stretch="normal" font-size="103" text-anchor="start" direction="ltr" writing-mode="lr-tb" unicode-bidi="normal" text-decoration="none" transform="matrix(0.5 -0.866025 0.866025 0.5 1440.14 847)">JIME</text><path d="M3078.85 1362.99C3109.22 1476.33 2842.94 1646.15 2484.1 1742.3 2125.26 1838.45 1809.74 1824.52 1779.37 1711.18 1749 1597.85 2015.28 1428.03 2374.12 1331.87 2732.97 1235.72 3048.48 1249.65 3078.85 1362.99Z" stroke="#000000" stroke-width="3.40285" stroke-linecap="butt" stroke-linejoin="miter" stroke-miterlimit="8" stroke-opacity="1" fill="#FFFFFF" fill-rule="evenodd" fill-opacity="1"/><text fill="#000000" fill-opacity="1" font-family="TeXGyreTermes,TeXGyreTermes_MSFontService,sans-serif" font-style="normal" font-variant="normal" font-weight="400" font-stretch="normal" font-size="103" text-anchor="start" direction="ltr" writing-mode="lr-tb" unicode-bidi="normal" text-decoration="none" transform="matrix(0.965926 -0.258819 0.258819 0.965926 2381.47 1651)">JIN</text><path d="M2029.62 729.307C1819.82 729.307 1767.37 950.448 1935.21 994.676 1767.37 1091.98 1956.19 1304.27 2092.56 1215.82 2186.97 1392.73 2501.7 1392.73 2606.6 1215.82 2816.4 1215.82 2816.4 1038.9 2685.27 950.448 2816.4 773.535 2606.6 596.623 2423.02 685.079 2291.9 552.395 2082.07 552.395 2029.62 729.307Z" stroke="#36393D" stroke-width="3.40285" stroke-linecap="butt" stroke-linejoin="miter" stroke-miterlimit="8" stroke-opacity="1" fill="#CDEB8B" fill-rule="evenodd" fill-opacity="1"/><text fill="#000000" fill-opacity="1" font-family="TeXGyreTermes,TeXGyreTermes_MSFontService,sans-serif" font-style="normal" font-variant="normal" font-weight="400" font-stretch="normal" font-size="83" text-anchor="start" direction="ltr" writing-mode="lr-tb" unicode-bidi="normal" text-decoration="none" transform="matrix(1 0 0 1 1965.63 915)">Practical</text><text fill="#000000" fill-opacity="1" font-family="TeXGyreTermes,TeXGyreTermes_MSFontService,sans-serif" font-style="normal" font-variant="normal" font-weight="400" font-stretch="normal" font-size="83" text-anchor="start" direction="ltr" writing-mode="lr-tb" unicode-bidi="normal" text-decoration="none" transform="matrix(1 0 0 1 2275 915)">Knowledge</text><text fill="#000000" fill-opacity="1" font-family="TeXGyreTermes,TeXGyreTermes_MSFontService,sans-serif" font-style="normal" font-variant="normal" font-weight="400" font-stretch="normal" font-size="83" text-anchor="start" direction="ltr" writing-mode="lr-tb" unicode-bidi="normal" text-decoration="none" transform="matrix(1 0 0 1 2159.27 1014)">Database</text><text fill="#000000" fill-opacity="1" font-family="TeXGyreTermes,TeXGyreTermes_MSFontService,sans-serif" font-style="normal" font-variant="normal" font-weight="400" font-stretch="normal" font-size="83" text-anchor="start" direction="ltr" writing-mode="lr-tb" unicode-bidi="normal" text-decoration="none" transform="matrix(1 0 0 1 1966.77 1113)">i</text><text fill="#000000" fill-opacity="1" font-family="TeXGyreTermes,TeXGyreTermes_MSFontService,sans-serif" font-style="normal" font-variant="normal" font-weight="400" font-stretch="normal" font-size="83" text-anchor="start" direction="ltr" writing-mode="lr-tb" unicode-bidi="normal" text-decoration="none" transform="matrix(1 0 0 1 1989.69 1113)">n Maritime Industry</text><path d="M2392.49 646.885 2440.72 589.407 2415.63 568.356 2514.63 527.171 2491.26 631.817 2466.17 610.765 2417.94 668.243Z" fill="#00CC00" fill-rule="evenodd" fill-opacity="1"/><path d="M2603.4 600.267 2560.37 661.729 2587.19 680.514 2492.16 730.17 2506.32 623.886 2533.15 642.671 2576.19 581.208Z" fill="#FFCC99" fill-rule="evenodd" fill-opacity="1"/><path d="M2696.03 655.554 2653.02 716.988 2679.82 735.753 2584.79 785.458 2598.97 679.145 2625.8 697.93 2668.82 636.496Z" fill="#FFCC99" fill-rule="evenodd" fill-opacity="1"/><path d="M2675.36 804.224 2712.86 739.274 2684.52 722.916 2774.85 665.119 2769.99 772.263 2741.63 755.888 2704.13 820.838Z" fill="#00CC00" fill-rule="evenodd" fill-opacity="1"/><path d="M2059.81 649.306 1994.86 611.808 1978.49 640.17 1920.71 549.81 2027.85 554.67 2011.48 583.032 2076.43 620.531Z" fill="#00CC00" fill-rule="evenodd" fill-opacity="1"/><path d="M1885.4 661.116 1951.62 696.325 1966.98 667.438 2027.89 755.696 1920.64 754.579 1936.02 725.663 1869.8 690.454Z" fill="#FFCC99" fill-rule="evenodd" fill-opacity="1"/><path d="M1817.31 776.05 1883.53 811.259 1898.89 782.372 1959.8 870.63 1852.55 869.513 1867.93 840.596 1801.71 805.387Z" fill="#FFCC99" fill-rule="evenodd" fill-opacity="1"/><path d="M1881.97 1006.77 1817.02 969.271 1800.66 997.604 1742.86 907.274 1850.01 912.133 1833.63 940.495 1898.58 977.994Z" fill="#00CC00" fill-rule="evenodd" fill-opacity="1"/><path d="M2259.96 1288.87 2279.37 1361.31 2310.97 1352.84 2287.97 1457.59 2215.64 1378.39 2247.28 1369.91 2227.87 1297.47Z" fill="#00CC00" fill-rule="evenodd" fill-opacity="1"/><path d="M2374.05 1427.84 2354.64 1355.4 2323.04 1363.87 2346.04 1259.13 2418.37 1338.32 2386.74 1346.8 2406.15 1419.24Z" fill="#FFCC99" fill-rule="evenodd" fill-opacity="1"/><path d="M2476.18 1393.8 2456.77 1321.35 2425.17 1329.82 2448.17 1225.08 2520.5 1304.28 2488.87 1312.75 2508.28 1385.2Z" fill="#FFCC99" fill-rule="evenodd" fill-opacity="1"/><path d="M2562.91 1186.74 2582.32 1259.18 2613.92 1250.71 2590.92 1355.46 2518.59 1276.26 2550.23 1267.78 2530.82 1195.34Z" fill="#00CC00" fill-rule="evenodd" fill-opacity="1"/><path d="M2207.48 30.9999 2207.48 105.936 2240 105.936 2190.98 201 2142 105.936 2174.49 105.936 2174.49 30.9999Z" fill="#647687" fill-rule="evenodd" fill-opacity="1"/><path d="M2535.48 37.841 2516.06 110.316 2547.69 118.792 2475.37 197.957 2452.36 93.2483 2483.96 101.716 2503.38 29.2412Z" fill="#647687" fill-rule="evenodd" fill-opacity="1"/><path d="M2850.49 186.527 2812.97 251.506 2841.33 267.881 2750.99 325.631 2755.86 218.534 2784.19 234.892 2821.71 169.913Z" fill="#647687" fill-rule="evenodd" fill-opacity="1"/><path d="M3045.92 340.01 2992.86 393.065 3016 416.199 2913.81 448.624 2946.21 346.412 2969.37 369.57 3022.42 316.515Z" fill="#647687" fill-rule="evenodd" fill-opacity="1"/><path d="M3233.12 488.996 3168.14 526.512 3184.52 554.874 3077.4 559.716 3135.17 469.403 3151.53 497.736 3216.51 460.221Z" fill="#647687" fill-rule="evenodd" fill-opacity="1"/><path d="M3336.3 688.518 3263.83 707.937 3272.29 739.539 3167.59 716.526 3246.75 644.208 3255.23 675.843 3327.7 656.423Z" fill="#647687" fill-rule="evenodd" fill-opacity="1"/><path d="M3369.21 1012.61 3294.19 1013.92 3294.76 1046.63 3198.73 998.974 3293.04 947.956 3293.61 980.701 3368.63 979.392Z" fill="#647687" fill-rule="evenodd" fill-opacity="1"/><path d="M3327.68 1290.9 3255.21 1271.48 3246.74 1303.08 3167.57 1230.79 3272.28 1207.75 3263.81 1239.38 3336.28 1258.8Z" fill="#647687" fill-rule="evenodd" fill-opacity="1"/><path d="M3180.29 1494.49 3112.29 1462.78 3098.46 1492.43 3033.05 1407.5 3140.17 1402.98 3126.33 1432.67 3194.33 1464.38Z" fill="#647687" fill-rule="evenodd" fill-opacity="1"/><path d="M3022.44 1651.57 2969.39 1598.51 2946.25 1621.65 2913.83 1519.46 3016.04 1551.86 2992.88 1575.02 3045.94 1628.07Z" fill="#647687" fill-rule="evenodd" fill-opacity="1"/><path d="M2760.43 1797.81 2722.91 1732.84 2694.58 1749.19 2689.71 1642.1 2780.05 1699.85 2751.69 1716.22 2789.21 1781.2Z" fill="#647687" fill-rule="evenodd" fill-opacity="1"/><path d="M2503.38 1872 2483.96 1799.53 2452.36 1807.99 2475.37 1703.29 2547.69 1782.45 2516.06 1790.93 2535.48 1863.4Z" fill="#647687" fill-rule="evenodd" fill-opacity="1"/><path d="M2208.49 1937 2208.49 1862.06 2176 1862.06 2224.98 1767 2274 1862.06 2241.48 1862.06 2241.48 1937Z" fill="#647687" fill-rule="evenodd" fill-opacity="1"/><path d="M1857.65 1896.2 1877.06 1823.76 1845.46 1815.29 1917.75 1736.08 1940.79 1840.83 1909.15 1832.36 1889.74 1904.8Z" fill="#647687" fill-rule="evenodd" fill-opacity="1"/><path d="M1484.97 1747.17 1522.47 1682.22 1494.13 1665.86 1584.46 1608.07 1579.6 1715.21 1551.24 1698.84 1513.74 1763.79Z" fill="#647687" fill-rule="evenodd" fill-opacity="1"/><path d="M1257.95 1573.76 1322.9 1536.26 1306.54 1507.93 1413.67 1503.04 1355.89 1593.4 1339.52 1565.04 1274.57 1602.54Z" fill="#647687" fill-rule="evenodd" fill-opacity="1"/><path d="M1056.86 1245.52 1129.3 1226.11 1120.83 1194.51 1225.57 1217.52 1146.38 1289.84 1137.9 1258.21 1065.46 1277.62Z" fill="#647687" fill-rule="evenodd" fill-opacity="1"/><path d="M1023.94 969.087 1098.92 967.778 1098.35 935.067 1194.42 982.727 1100.08 1033.75 1099.5 1001 1024.52 1002.31Z" fill="#647687" fill-rule="evenodd" fill-opacity="1"/><path d="M1101.53 749.782 1181.27 771.149 1189.74 739.547 1278.09 814.29 1164.19 834.878 1172.67 803.243 1092.93 781.877Z" fill="#647687" fill-rule="evenodd" fill-opacity="1"/><path d="M1185.1 493.12 1266.83 531.232 1280.67 501.55 1363.51 594.645 1238.96 590.997 1252.79 561.346 1171.05 523.234Z" fill="#647687" fill-rule="evenodd" fill-opacity="1"/><path d="M1394.79 316.514 1447.82 369.545 1470.95 346.411 1503.4 448.623 1401.16 416.198 1424.32 393.04 1371.29 340.009Z" fill="#647687" fill-rule="evenodd" fill-opacity="1"/><path d="M1632.66 136.208 1670.15 201.158 1698.49 184.8 1703.38 291.926 1613.02 234.146 1641.38 217.771 1603.88 152.822Z" fill="#647687" fill-rule="evenodd" fill-opacity="1"/><path d="M1988.43 63.2864 2007.84 135.728 2039.45 127.261 2016.44 232.002 1944.11 152.804 1975.75 144.328 1956.34 71.8862Z" fill="#647687" fill-rule="evenodd" fill-opacity="1"/><path d="M1411 2243.82 1486.34 2243.82 1486.34 2211 1582 2260.48 1486.34 2310 1486.34 2277.15 1411 2277.15Z" fill="#FFCC99" fill-rule="evenodd" fill-opacity="1"/><path d="M1411 2107.82 1486.38 2107.82 1486.38 2075 1582 2124.48 1486.38 2174 1486.38 2141.15 1411 2141.15Z" fill="#647687" fill-rule="evenodd" fill-opacity="1"/><path d="M1411 2386.82 1486.34 2386.82 1486.34 2354 1582 2403.48 1486.34 2453 1486.34 2420.15 1411 2420.15Z" fill="#00CC00" fill-rule="evenodd" fill-opacity="1"/><text fill="#000000" fill-opacity="1" font-family="TeXGyreTermes,TeXGyreTermes_MSFontService,sans-serif" font-style="normal" font-variant="normal" font-weight="400" font-stretch="normal" font-size="76" text-anchor="start" direction="ltr" writing-mode="lr-tb" unicode-bidi="normal" text-decoration="none" transform="matrix(1 0 0 1 1649.76 2150)">Needs &amp; challenges around maritime industry</text><text fill="#000000" fill-opacity="1" font-family="TeXGyreTermes,TeXGyreTermes_MSFontService,sans-serif" font-style="normal" font-variant="normal" font-weight="400" font-stretch="normal" font-size="76" text-anchor="start" direction="ltr" writing-mode="lr-tb" unicode-bidi="normal" text-decoration="none" transform="matrix(1 0 0 1 1649.76 2286)">Outcomes of each society's activities</text><text fill="#000000" fill-opacity="1" font-family="TeXGyreTermes,TeXGyreTermes_MSFontService,sans-serif" font-style="normal" font-variant="normal" font-weight="400" font-stretch="normal" font-size="76" text-anchor="start" direction="ltr" writing-mode="lr-tb" unicode-bidi="normal" text-decoration="none" transform="matrix(1 0 0 1 1649.76 2429)">Knowledges and techniques of each society's outcome</text><path d="M2919.64 777.53C2997.1 1066.59 2767.22 1379.35 2406.19 1476.09 2045.16 1572.82 1689.69 1416.91 1612.24 1127.85 1534.79 838.783 1764.67 526.028 2125.7 429.291 2486.73 332.553 2842.19 488.465 2919.64 777.53Z" stroke="#FF8000" stroke-width="23.8189" stroke-linecap="butt" stroke-linejoin="miter" stroke-miterlimit="8" stroke-opacity="1" fill="none" fill-rule="evenodd"/></g></g></svg>